PathFileType	4	(X/Y/Z)	C:/Users/opensim2020/Desktop/walking_exp_matlab/subject02_walking12_straight_02.trc																																																																																																																												
DataRate	CameraRate	NumFrames	NumMarkers	Units	OrigDataRate	OrigDataStartFrame	OrigNumFrames																																																																																																																								
100	100	5	42	mm	100	1071	149																																																																																																																								
Frame#	Time	LFHD			RFHD			LBHD			RBHD			C7			T10			CLAV			STRN			RBAK			LSHO			LUPA			LELB			LFRM			LWRA			LWRB			LFIN			RSHO			RUPA			RELB			RFRM			RWRA			RWRB			RFIN			LASI			RASI			LPSI			RPSI			LTHI			LKNE			LTIB			LANK			LHEE			LTOE			RTHI			RKNE			RTIB			RANK			RHEE			RTOE			*39			*40			*41		
		X1	Y1	Z1	X2	Y2	Z2	X3	Y3	Z3	X4	Y4	Z4	X5	Y5	Z5	X6	Y6	Z6	X7	Y7	Z7	X8	Y8	Z8	X9	Y9	Z9	X10	Y10	Z10	X11	Y11	Z11	X12	Y12	Z12	X13	Y13	Z13	X14	Y14	Z14	X15	Y15	Z15	X16	Y16	Z16	X17	Y17	Z17	X18	Y18	Z18	X19	Y19	Z19	X20	Y20	Z20	X21	Y21	Z21	X22	Y22	Z22	X23	Y23	Z23	X24	Y24	Z24	X25	Y25	Z25	X26	Y26	Z26	X27	Y27	Z27	X28	Y28	Z28	X29	Y29	Z29	X30	Y30	Z30	X31	Y31	Z31	X32	Y32	Z32	X33	Y33	Z33	X34	Y34	Z34	X35	Y35	Z35	X36	Y36	Z36	X37	Y37	Z37	X38	Y38	Z38	X39	Y39	Z39	X40	Y40	Z40	X41	Y41	Z41	X42	Y42	Z42
																																																																																																																															
56	0.55	-171.47449	1754.50012	-1481.89001	-188.30153	1726.76404	-1341.58557	-296.50702	1675.86108	-1510.51318	-325.38809	1647.0752	-1372.75305	-353.67633	1534.89001	-1441.0354	-413.64011	1261.00696	-1429.66199	-217.69388	1463.64807	-1456.62781	-169.75427	1289.70569	-1445.96606	-412.65506	1364.96204	-1370.28845	-293.09891	1507.2749	-1622.40039	-338.22372	1312.79077	-1702.10071	-362.90942	1172.2865	-1715.33118	-358.49078	1038.3429	-1725.17529	-303.06955	911.89166	-1689.88391	-349.11249	914.41376	-1723.19714	-334.89853	848.32208	-1719.51672	-270.11804	1501.48413	-1259.2572	-285.04172	1313.43567	-1167.01221	-264.09357	1166.5094	-1148.22998	-221.07944	1053.09155	-1134.98486	-160.28912	934.44958	-1160.13074	-203.78674	924.3327	-1124.33447	-157.30971	868.28467	-1124.71875	-191.55574	999.03668	-1561.83215	-195.71181	980.53906	-1309.59009	-399.52679	1046.10339	-1487.25342	-404.1044	1046.67908	-1371.6001	-189.3893	698.151	-1639.32886	-157.20497	506.73328	-1615.11023	-239.19432	334.46588	-1606.19922	-266.84653	112.40722	-1579.73987	-293.81018	89.42731	-1521.65698	-129.5071	48.46315	-1614.33948	-291.02493	671.75	-1260.79285	-311.04785	463.94287	-1311.79773	-366.28644	283.34109	-1311.03247	-398.18112	93.60304	-1357.11108	-435.85587	41.64951	-1414.04614	-249.19679	37.8864	-1339.35181	-286.46857	1810.79773	-1401.32312	-2845.80127	1034.3136	3357.40967	NaN	NaN	NaN
57	0.56	-159.27457	1753.30579	-1484.09961	-175.7972	1726.09863	-1343.61047	-284.53436	1674.95105	-1511.99658	-313.28711	1646.7312	-1374.07642	-341.73233	1534.04358	-1442.01282	-401.9697	1260.2113	-1430.64929	-205.72998	1462.55103	-1457.49768	-157.98293	1288.79602	-1446.16528	-401.05701	1364.41699	-1370.96887	-281.16147	1505.34204	-1623.19946	-329.78336	1311.19434	-1701.55872	-356.62732	1171.14868	-1713.44324	-356.39682	1036.74561	-1721.47827	-306.58517	908.68555	-1684.57288	-351.85751	912.90973	-1718.88855	-340.26343	846.17456	-1714.31152	-257.85556	1501.21985	-1260.14038	-270.89444	1313.53955	-1166.72046	-247.96797	1166.7948	-1147.29126	-202.15297	1054.62109	-1134.74231	-138.60667	937.44293	-1160.5238	-181.6683	926.06683	-1124.39539	-133.62338	871.47675	-1125.2605	-178.88374	997.80212	-1561.67712	-185.76102	978.52704	-1309.27832	-387.66299	1045.39417	-1489.27075	-393.57437	1045.89197	-1373.70764	-174.91118	698.32043	-1639.66846	-141.40201	506.27136	-1614.7948	-213.44513	328.48129	-1609.57935	-227.6459	104.63233	-1585.86951	-254.41313	79.88647	-1528.5	-86.06199	49.3522	-1618.52124	-284.58704	671.34198	-1261.79333	-306.89774	463.38812	-1312.25122	-364.54175	283.5661	-1311.67029	-397.74182	93.89066	-1357.49915	-435.68738	41.90019	-1414.38708	-249.03151	37.62394	-1339.13306	-273.67459	1810.13159	-1403.17163	-2845.29858	1034.2677	3360.44897	NaN	NaN	NaN
58	0.57	-146.82088	1751.9967	-1486.23376	-163.22302	1725.0957	-1345.52002	-272.52399	1673.86084	-1513.52686	-301.06024	1646.17944	-1375.40015	-329.80353	1533.01074	-1443.17188	-390.38379	1259.25293	-1432.07971	-193.66132	1461.26685	-1458.42444	-146.17993	1287.51672	-1446.35889	-389.1272	1363.47803	-1371.69043	-269.35999	1503.29431	-1624.42566	-321.22482	1309.39026	-1700.97754	-350.12701	1169.70288	-1711.19812	-354.439	1035.62354	-1718.36096	-309.54758	905.7074	-1679.20007	-354.09686	911.52063	-1714.64551	-345.08408	844.57605	-1709.29285	-245.53452	1500.61426	-1261.07935	-257.83951	1313.23816	-1167.1405	-231.97121	1166.99097	-1146.38782	-183.44582	1055.62524	-1134.36609	-117.21687	940.35828	-1160.87097	-159.57758	927.67224	-1124.33752	-110.03613	874.42346	-1125.68738	-166.17181	996.19019	-1561.89868	-175.53087	976.49084	-1309.15527	-375.75305	1044.23816	-1491.25916	-382.91287	1044.76025	-1375.81543	-160.92863	697.98175	-1640.01355	-126.10298	505.41815	-1614.80786	-188.01752	323.22302	-1613.16052	-188.52327	98.21879	-1592.64478	-214.8894	71.48711	-1535.93982	-42.94754	51.01443	-1623.00256	-278.19269	670.7074	-1262.84998	-302.96521	462.92487	-1313.22461	-362.44446	283.80154	-1312.49866	-397.30109	94.20785	-1357.93811	-435.49445	42.17948	-1414.82727	-248.99394	37.64664	-1339.07642	-260.8811	1809.30737	-1405.12463	-2845.91504	1034.42517	3357.42114	NaN	NaN	NaN
59	0.58	-134.53033	1750.1449	-1488.2439	-150.63397	1723.95801	-1347.52039	-260.46771	1672.53955	-1515.1178	-289.34668	1645.28357	-1377.09607	-317.80206	1531.75684	-1444.25439	-378.65097	1258.0918	-1433.65015	-181.59908	1459.86938	-1459.44324	-134.14441	1285.93347	-1446.43481	-377.17352	1362.34692	-1372.53955	-257.37408	1501.14709	-1625.48303	-312.90823	1307.74084	-1700.69763	-343.40576	1168.0426	-1708.60217	-352.22787	1034.46204	-1715.30762	-311.86246	903.85455	-1674.99622	-355.96509	910.5094	-1710.65271	-349.47952	843.1908	-1704.55322	-233.35564	1499.87732	-1262.20935	-244.09972	1312.9801	-1167.28003	-215.99968	1167.03796	-1145.64819	-164.70766	1056.72388	-1134.16785	-95.94357	943.0705	-1161.16345	-137.64651	929.50201	-1125.09277	-86.96441	877.71423	-1126.53699	-153.35088	994.2594	-1562.43555	-165.17574	974.41785	-1309.2417	-363.72598	1042.60535	-1493.26904	-372.14743	1043.28174	-1377.90051	-147.40175	697.02893	-1640.38574	-111.19543	504.11688	-1615.27039	-162.45087	318.00128	-1616.53345	-149.33923	92.87708	-1599.28223	-175.41052	64.63673	-1543.39185	-0.66832	53.53445	-1627.35571	-271.52423	670.05359	-1264.06409	-299.00745	462.5578	-1314.50708	-360.22031	284.05347	-1313.32935	-396.87796	94.4819	-1358.47339	-435.12009	42.31813	-1415.31641	-248.95715	37.59818	-1339.0022	-248.1544	1808.36938	-1407.24097	-2845.90308	1034.31982	3357.23364	NaN	NaN	NaN
60	0.59	-122.11179	1748.26624	-1490.41895	-137.88759	1722.47083	-1349.39587	-248.37532	1671.06909	-1516.78918	-276.5304	1644.51416	-1378.27502	-305.74786	1530.29553	-1445.4668	-366.8526	1256.7179	-1435.49414	-169.54645	1458.23535	-1460.51392	-122.36781	1284.50012	-1446.96985	-365.29428	1360.91956	-1373.50879	-245.63792	1499.00439	-1626.95789	-304.25192	1305.92578	-1700.34717	-337.03598	1167.00769	-1706.97241	-349.59314	1033.48901	-1712.44751	-314.3222	901.40887	-1669.85791	-357.32605	909.82336	-1706.97839	-353.01111	842.05811	-1699.61975	-221.19682	1498.8313	-1263.22266	-229.80765	1312.58289	-1167.302	-200.05858	1166.68823	-1145.37805	-146.39268	1057.71545	-1134.14355	-75.00238	946.0155	-1161.95068	-116.51754	931.09332	-1125.40735	-64.11786	880.84393	-1127.28052	-140.39592	992.00311	-1563.23352	-154.68672	972.33167	-1309.37451	-351.67215	1040.55286	-1495.19141	-361.24341	1041.48145	-1380.07373	-134.23495	695.42572	-1640.88391	-96.58942	502.45068	-1616.34082	-136.79759	312.82401	-1620.3551	-110.46861	88.56818	-1605.40564	-135.45908	58.059	-1549.87134	40.75224	57.49122	-1631.19324	-264.67245	669.25256	-1265.28503	-294.75989	462.00009	-1315.68152	-357.89151	284.30777	-1314.30176	-396.3945	94.88435	-1359.04419	-434.99619	42.84382	-1415.87634	-248.85306	37.52561	-1338.89343	-235.34294	1807.15857	-1409.37756	-2845.22852	1034.07751	3360.29663	NaN	NaN	NaN
